<svg width="774" height="825" viewBox="0 0 774 825" fill="none" xmlns="http://www.w3.org/2000/svg">
<path d="M189.288 125.316C189.288 125.316 197.431 126.879 202.786 127.895C230.694 133.195 240.164 142.117 245.325 169.329L249.828 184.333L256.832 200.338L263.837 216.843L270.841 230.847L292.856 269.358L332.882 335.877L350.393 370.887C357.427 390.091 353.052 396.446 329.88 399.895H265.838H206.299H176.28H158.786C126.699 399.128 111 392.599 80.2175 372.387C51.6222 352.815 38.6549 335.315 23.1804 287.863C14.514 245.993 19.8613 221.881 48.1967 177.831C88.1922 126.902 118.862 114.962 189.288 125.316Z" fill="#00BDBD"/>
<path d="M344.286 315.395L374.286 363.895C386.022 376.574 393.433 374.736 408.286 355.395L417.786 339.395L428.786 318.895L442.786 294.395L456.786 269.395L474.286 239.395L487.286 219.895L497.286 204.895L509.286 189.895L522.785 173.395L535.285 160.395L541.285 152.895L542.785 149.395C547.488 133.977 547.714 124.839 542.785 107.395C535.073 77.3239 526.347 63.1502 505.786 40.8954C480.329 15.9414 462.882 7.47586 425.786 2.39539C377.316 -2.50578 353.025 4.89067 314.286 34.3954C285.275 62.8787 276.033 81.5074 269.286 118.395C266.67 171.653 275.026 194.732 294.286 232.895L344.286 315.395Z" fill="#00BDBD"/>
<path d="M445.286 399.895C422.148 398.377 415.906 391.723 426.786 367.895L427.786 365.895L438.786 348.895L448.286 332.895L464.286 305.395L478.786 278.395L494.786 249.895L509.286 228.395L521.285 211.395L537.285 193.895L551.785 181.895L565.785 173.395C634.061 137.109 670.593 144.033 733.285 194.895C761.761 225.259 770.726 246.861 773.285 294.395C766.346 356.892 751.301 383.237 704.785 411.895C696.771 417.66 689.824 416.312 675.285 409.895L656.785 406.395L640.785 403.395L628.285 401.395L611.285 399.895H584.785H542.785L498.286 401.395L445.286 399.895Z" fill="#00BDBD"/>
<path d="M424.786 455.895C411.324 428.631 416.997 421.277 452.286 423.395H500.786L566.785 423.895L616.785 425.395H622.285C676.67 433.51 700.287 448.223 730.785 488.895C760.285 535.895 761.952 571.988 739.785 627.895C713.285 675.895 680.451 694.95 624.785 703.395C576.785 703.895 548.785 693.895 539.785 678.395L536.285 669.395L531.785 655.395L517.285 618.395L503.786 591.395L485.786 559.395L445.286 491.395L424.786 455.895Z" fill="#00BDBD"/>
<path d="M414.286 479.895C398.331 443.296 387.286 442.895 365.786 473.895L364.786 475.395L352.786 493.895L327.286 538.395L302.286 582.895L286.286 608.895L270.286 632.395L246.786 659.395L235.786 670.895C233.812 672.648 232.714 674.101 230.786 678.395C229.286 714.395 235.786 737.895 263.786 773.895C301.1 811.423 324.286 823.895 375.286 823.895C440.286 817.895 484.392 788.395 502.786 726.895C511.04 699.294 511.355 682.133 503.786 648.395L495.286 625.895L485.786 604.395L477.786 587.895L456.786 551.895L430.786 508.395L414.286 479.895Z" fill="#00BDBD"/>
<path d="M346.786 460.395C363.922 429.055 357.643 421.087 319.286 423.395H316.786H285.786L240.786 424.895L168.286 423.395L136.286 419.395L114.786 415.895L100.786 412.895L91.7855 410.395H83.7855H77.7855L68.7857 412.895C33.2857 435.895 20.8489 449.406 2.78553 501.395C-3.21433 561.895 5.12393 588.555 39.7855 626.895C75.5819 659.58 98.2282 670.161 144.286 671.895C191.925 668.332 216.049 655.881 254.286 614.395L270.286 589.895L292.786 553.395L325.786 495.395L346.786 460.395Z" fill="#00BDBD"/>
<path d="M189.288 125.316C189.288 125.316 197.431 126.879 202.786 127.895C230.694 133.195 240.164 142.117 245.325 169.329L249.828 184.333L256.832 200.338L263.837 216.843L270.841 230.847L292.856 269.358L332.882 335.877L350.393 370.887C357.427 390.091 353.052 396.446 329.88 399.895H265.838H206.299H176.28H158.786C126.699 399.128 111 392.599 80.2175 372.387C51.6222 352.815 38.6549 335.315 23.1804 287.863C14.514 245.993 19.8613 221.881 48.1967 177.831C88.1922 126.902 118.862 114.962 189.288 125.316Z" stroke="#00BDBD"/>
<path d="M344.286 315.395L374.286 363.895C386.022 376.574 393.433 374.736 408.286 355.395L417.786 339.395L428.786 318.895L442.786 294.395L456.786 269.395L474.286 239.395L487.286 219.895L497.286 204.895L509.286 189.895L522.785 173.395L535.285 160.395L541.285 152.895L542.785 149.395C547.488 133.977 547.714 124.839 542.785 107.395C535.073 77.3239 526.347 63.1502 505.786 40.8954C480.329 15.9414 462.882 7.47586 425.786 2.39539C377.316 -2.50578 353.025 4.89067 314.286 34.3954C285.275 62.8787 276.033 81.5074 269.286 118.395C266.67 171.653 275.026 194.732 294.286 232.895L344.286 315.395Z" stroke="#00BDBD"/>
<path d="M445.286 399.895C422.148 398.377 415.906 391.723 426.786 367.895L427.786 365.895L438.786 348.895L448.286 332.895L464.286 305.395L478.786 278.395L494.786 249.895L509.286 228.395L521.285 211.395L537.285 193.895L551.785 181.895L565.785 173.395C634.061 137.109 670.593 144.033 733.285 194.895C761.761 225.259 770.726 246.861 773.285 294.395C766.346 356.892 751.301 383.237 704.785 411.895C696.771 417.66 689.824 416.312 675.285 409.895L656.785 406.395L640.785 403.395L628.285 401.395L611.285 399.895H584.785H542.785L498.286 401.395L445.286 399.895Z" stroke="#00BDBD"/>
<path d="M424.786 455.895C411.324 428.631 416.997 421.277 452.286 423.395H500.786L566.785 423.895L616.785 425.395H622.285C676.67 433.51 700.287 448.223 730.785 488.895C760.285 535.895 761.952 571.988 739.785 627.895C713.285 675.895 680.451 694.95 624.785 703.395C576.785 703.895 548.785 693.895 539.785 678.395L536.285 669.395L531.785 655.395L517.285 618.395L503.786 591.395L485.786 559.395L445.286 491.395L424.786 455.895Z" stroke="#00BDBD"/>
<path d="M414.286 479.895C398.331 443.296 387.286 442.895 365.786 473.895L364.786 475.395L352.786 493.895L327.286 538.395L302.286 582.895L286.286 608.895L270.286 632.395L246.786 659.395L235.786 670.895C233.812 672.648 232.714 674.101 230.786 678.395C229.286 714.395 235.786 737.895 263.786 773.895C301.1 811.423 324.286 823.895 375.286 823.895C440.286 817.895 484.392 788.395 502.786 726.895C511.04 699.294 511.355 682.133 503.786 648.395L495.286 625.895L485.786 604.395L477.786 587.895L456.786 551.895L430.786 508.395L414.286 479.895Z" stroke="#00BDBD"/>
<path d="M346.786 460.395C363.922 429.055 357.643 421.087 319.286 423.395H316.786H285.786L240.786 424.895L168.286 423.395L136.286 419.395L114.786 415.895L100.786 412.895L91.7855 410.395H83.7855H77.7855L68.7857 412.895C33.2857 435.895 20.8489 449.406 2.78553 501.395C-3.21433 561.895 5.12393 588.555 39.7855 626.895C75.5819 659.58 98.2282 670.161 144.286 671.895C191.925 668.332 216.049 655.881 254.286 614.395L270.286 589.895L292.786 553.395L325.786 495.395L346.786 460.395Z" stroke="#00BDBD"/>
</svg>
