<svg width="400" height="421" viewBox="0 0 400 421" fill="none" xmlns="http://www.w3.org/2000/svg">
<path d="M160.638 22H162.138H163.638L164.638 23C164.971 23.3333 165.738 24 166.138 24C166.538 24 167.304 25.3333 167.638 26H169.638H171.638C172.138 26 174.638 27 175.138 27.5C175.538 27.9 176.971 27.3333 177.638 27H181.638L183.138 27.5L185.138 28.5H186.138L187.638 29H189.138C189.638 29.3333 190.738 30.1 191.138 30.5C191.538 30.9 191.638 31.3333 191.638 31.5C191.638 32.1667 191.838 33.9 192.638 35.5C193.038 35.9 194.138 35.6667 194.638 35.5H197.638C198.304 35.8333 199.838 36.5 200.638 36.5C201.638 36.5 202.638 36.5 204.138 37.5C205.638 38.5 205.638 38 207.138 38C208.638 38 208.638 39 209.138 39.5L210.138 40.5H212.638H213.638L214.638 39H216.138L216.638 38V36.5V35.5V33.5V32V30.5L218.138 29C218.471 29 219.238 28.9 219.638 28.5C220.138 28 222.138 27.5 223.138 27.5C224.138 27.5 226.138 26.5 226.638 26C227.038 25.6 227.138 25.8333 227.138 26H231.638C233.138 26 233.138 27 233.638 27.5C234.038 27.9 235.471 28.3333 236.138 28.5H237.138L239.138 30.5C239.538 30.9 239.638 31.3333 239.638 31.5C240.638 31.5 242.838 31.6 243.638 32C244.438 32.4 245.304 32.1667 245.638 32C245.804 32.5 246.238 33.5 246.638 33.5C247.038 33.5 248.471 34.1667 249.138 34.5H254.138C254.638 34.5 255.838 34.6 256.638 35L257.638 35.5C258.804 35.8333 261.238 36.5 261.638 36.5C262.038 36.5 264.804 37.1667 266.138 37.5L268.638 38L272.138 37.5C272.971 37.1667 274.838 36.5 275.638 36.5H276.138L279.138 35L281.138 33.5H282.638H284.638L286.638 35L288.138 36C288.638 36.1667 289.838 36.5 290.638 36.5C291.638 36.5 291.638 37.5 292.638 37.5H294.638H295.638C296.138 37.3333 297.138 36.9 297.138 36.5C297.138 36.1 298.138 35.6667 298.638 35.5L300.138 36L300.638 37.5C300.638 37.8333 300.838 38.6 301.638 39C302.638 39.5 301.638 40.5 301.638 41.5C301.638 42.3 301.971 42.8333 302.138 43C302.471 43.5 303.238 44.6 303.638 45C304.038 45.4 303.471 46.1667 303.138 46.5V48.5C303.138 48.9 302.138 49.6667 301.638 50C301.471 50.5 301.038 51.5 300.638 51.5C300.138 51.5 300.638 53 300.638 54V55L300.138 56L298.638 56.5L298.138 56L297.138 55.5L296.638 55L295.638 54L294.138 53V51.5L293.138 50L292.138 48.5L291.638 48L291.138 48.5V50.5C291.304 50.8333 291.738 51.5 292.138 51.5C292.538 51.5 292.638 52.5 292.638 53C293.138 53.5 294.138 54.6 294.138 55C294.138 55.5 295.138 56 295.638 56.5C296.138 57 296.638 58.5 296.638 59.5C296.638 60.3 296.971 60.8333 297.138 61L298.638 63L300.138 65.5L301.638 67.5L303.138 70.5L306.138 74.5L306.638 75L308.638 77C309.138 77.5 309.138 78.5 309.638 79.5C310.138 80.5 309.138 80.5 309.138 81.5C309.138 82.3 308.138 82.8333 307.638 83C307.971 83.6667 308.738 85 309.138 85C309.638 85 311.138 86 311.638 86.5C312.138 87 313.638 88 314.138 88.5C314.538 88.9 315.304 90 315.638 90.5L318.138 95.5C318.138 96.1667 318.238 97.8 318.638 99C319.038 100.2 318.804 100.5 318.638 100.5C318.638 101.167 318.538 102.6 318.138 103C317.638 103.5 318.638 105 318.638 105.5V107.5L319.638 108L321.138 109L322.638 110.5L323.638 111.5C324.304 112.333 325.738 114 326.138 114C326.638 114 326.638 115.5 327.138 116.5C327.638 117.5 328.138 118 328.638 119C329.038 119.8 329.138 120.333 329.138 120.5C329.304 121.5 329.638 123.6 329.638 124V126.5H331.638L333.138 128L334.138 129L336.138 130.5L339.138 131.5L340.138 133L342.138 135L343.138 137L346.138 139.5C347.138 140.167 349.238 141.5 349.638 141.5C350.138 141.5 351.138 143 351.638 143.5C352.138 144 352.638 144.5 353.138 144.5C353.638 144.5 354.138 145.5 354.638 145.5C355.138 145.5 354.638 146.5 354.138 147C353.638 147.5 354.138 148 353.138 148C352.338 148 351.804 148.667 351.638 149L350.138 150.5H351.138L353.138 152L354.138 153.5C354.471 153.667 355.238 154.1 355.638 154.5L356.638 155.5L358.138 156H359.138C360.138 156 362.138 155.9 362.138 155.5C362.138 155.1 362.804 154.667 363.138 154.5H365.138H367.138H368.138H369.138L371.638 154H372.138L374.138 152.5H375.138H378.638C379.038 152.5 380.804 151.833 381.638 151.5H383.138H385.138L387.138 151H388.638L390.638 149.5L393.638 149L395.138 148H396.638H397.638L398.138 149.5L398.638 152.5L398.138 156L396.638 160.5L395.138 164L393.138 169L390.638 174.5L387.138 180L384.138 187L382.138 190L380.138 192.5C379.138 193.833 377.038 196.6 376.638 197C376.238 197.4 373.804 199.5 372.638 200.5L367.638 205L365.638 206.5C365.138 206.833 363.938 207.6 363.138 208C362.338 208.4 360.804 210.167 360.138 211L354.638 214.5L351.638 216.5L347.638 220.5L344.638 224.5L340.638 229L339.138 230.5C338.638 231.167 337.638 232.6 337.638 233C337.638 233.4 335.638 233.167 334.638 233L334.138 235.5L333.138 237C332.971 237.333 332.638 238.2 332.638 239C332.638 240 331.638 241 331.638 241.5C331.638 241.9 330.304 243.667 329.638 244.5L327.638 248.5C327.471 248.833 327.138 249.6 327.138 250V252.5C327.138 252.9 327.804 253.667 328.138 254C328.638 254.167 329.638 254.6 329.638 255C329.638 255.5 330.138 256.5 330.638 257C331.038 257.4 330.804 258.167 330.638 258.5C330.471 258.833 330.138 259.7 330.138 260.5C330.138 261.3 330.471 262.167 330.638 262.5V264.5C330.638 265 330.538 266.1 330.138 266.5C329.638 267 330.638 267.5 330.638 268.5C330.638 269.3 331.304 269.5 331.638 269.5V272L332.638 274L334.638 275.5C335.138 276 336.138 277.1 336.138 277.5C336.138 277.9 337.138 279.333 337.638 280C337.471 280.667 336.938 282.1 336.138 282.5C335.338 282.9 336.471 284.667 337.138 285.5V289V293V296.5L337.638 299V302V305C337.304 305.5 336.538 306.6 336.138 307C335.738 307.4 334.971 308.5 334.638 309L332.638 311.5C332.138 312.333 331.038 314.1 330.638 314.5C330.238 314.9 329.138 315.333 328.638 315.5L324.638 317L320.638 318.5L318.638 319.5C317.638 320 317.138 321 316.638 321.5L314.638 323.5L309.638 328L305.638 331L304.638 332.5C304.304 332.667 303.538 333.1 303.138 333.5C302.638 334 302.638 335 302.638 336C302.638 337 303.638 337 303.638 337.5C303.638 337.9 304.304 339.333 304.638 340L305.638 342.5C305.971 343.167 306.638 344.6 306.638 345C306.638 345.4 306.971 346.833 307.138 347.5V351L307.638 354.5V356L307.138 358L305.638 360L302.638 361L298.138 363.5H294.638L292.638 366V370V372V379.5L288.138 384.5L282.138 390L277.638 395.5L275.138 398.5L270.638 403C270.238 403.4 269.471 404.5 269.138 405C268.304 405.667 266.538 407.1 266.138 407.5L264.138 409.5C263.138 410.167 260.938 411.6 260.138 412C259.138 412.5 259.138 412.5 258.138 413.5C257.138 414.5 255.638 413.5 255.138 413.5C254.638 413.5 253.138 414 252.138 413.5C251.138 413 250.138 414.5 249.638 414.5C249.238 414.5 247.804 415.167 247.138 415.5L244.138 416.5L242.138 415.5H239.138C238.138 415.667 235.938 416 235.138 416H233.138H231.638C231.138 416 231.138 417.5 230.638 417.5C230.138 417.5 229.138 418 228.138 418C227.138 418 227.138 418.5 226.638 418C226.138 417.5 224.638 418.5 223.638 418.5H221.138C220.138 418.5 219.138 420 218.638 420H215.138C214.738 420 213.638 418.333 213.138 417.5L210.138 416H208.138H206.638C206.138 416 206.638 415 206.638 414.5C206.638 414 206.138 413 206.138 412.5C206.138 412 206.638 411.5 206.638 411C206.638 410.5 205.138 410 204.638 409.5C204.138 409 204.638 407.5 204.638 407C204.638 406.6 205.638 406.167 206.138 406L206.638 405C206.638 404.5 206.538 403.4 206.138 403C205.738 402.6 205.304 401.5 205.138 401C204.971 400.167 204.638 398.4 204.638 398C204.638 397.6 203.638 397.833 203.138 398L200.138 394.5V394L199.138 393.5V392V390C199.138 389.5 198.638 389 198.638 388.5C198.638 388 198.138 387 197.638 385.5C197.638 384.5 196.638 385 196.138 384.5L195.138 383.5L193.638 382C193.138 381.5 191.638 379.5 191.138 379.5C190.638 379.5 190.138 378 190.138 377.5C190.138 377.1 189.138 376.333 188.638 376V372C187.971 370.667 186.638 367.9 186.638 367.5V366V363.5C186.638 362.7 184.971 361.5 184.138 361V358.5V355.5V353C184.138 352.5 184.638 350 185.138 349.5C185.538 349.1 185.304 348 185.138 347.5L183.138 345.5C182.638 345 181.138 343 180.638 342.5C180.138 342 179.138 340 178.638 339.5C178.138 339 178.638 337.5 178.138 337C177.638 336.5 176.638 334 176.638 333.5C176.638 333.1 174.971 330.333 174.138 329C173.638 328.333 172.438 326.9 171.638 326.5C170.638 326 170.638 325.5 170.638 325C170.638 324.5 169.638 323.5 169.638 322.5C169.638 321.5 168.638 321 168.138 320C167.638 319 168.138 318.5 168.138 318V315V311.5L169.638 308.5C170.304 307.167 171.438 304.5 170.638 304.5C169.838 304.5 170.971 303.167 171.638 302.5V301.5L172.638 300V299C172.971 298 173.638 295.9 173.638 295.5V295L176.638 291C177.638 290.5 177.138 290 178.138 289.5C179.138 289 179.638 289 180.138 288.5C180.638 288 180.138 287 179.638 286C179.238 285.2 179.804 284.333 180.138 284C180.471 283.5 180.938 282.3 180.138 281.5C179.338 280.7 179.471 280.5 179.638 280.5L178.638 278V276C178.138 275.333 177.038 273.9 176.638 273.5C176.138 273 176.638 272.5 175.638 272C174.638 271.5 175.638 271 175.638 269.5C175.638 268.3 176.304 268.667 176.638 269H177.138V267V266L176.638 264.5V263.5C176.638 263 175.638 262.5 175.138 262C174.738 261.6 174.971 261.167 175.138 261V259.5C174.804 259 174.138 257.8 174.138 257C174.138 256 173.138 256.5 172.638 256C172.138 255.5 171.638 254.5 171.638 252.5C171.638 251.5 171.638 251.5 171.138 250.5L169.638 247.5L169.138 244.5L165.638 240.5L164.638 239L162.638 237.5C161.971 236.667 160.538 234.9 160.138 234.5L158.638 233L157.638 231.5C157.304 231.167 156.338 230.3 155.138 229.5C154.138 229.5 154.138 227 153.638 225.5C153.138 225 153.638 224 153.138 223.5L152.638 223V221L153.638 220.5L154.138 219.5V218V217.5V216C154.138 215.6 154.804 214.833 155.138 214.5L156.138 213.5L155.138 210.5L156.138 209V206.5V205.5L156.638 204.5L157.638 203.5V202.5V200.5V200V197C157.638 196.5 156.638 196 156.138 195.5C155.738 195.1 155.304 195.333 155.138 195.5L154.138 195L153.138 193.5L152.638 193L151.138 192.5H149.638L147.638 193C146.804 192.833 145.038 192.5 144.638 192.5C144.238 192.5 143.138 193.167 142.638 193.5H140.638C140.238 193.5 139.138 193.167 138.638 193H135.638L133.638 191.5L132.638 190.5L132.138 189L131.138 188V186.5L130.638 185V184.5L128.638 182.5L126.638 182L125.138 182.5L124.138 182H122.138H120.638C119.638 182.167 117.438 182.5 116.638 182.5H115.138L112.138 183.5H110.138L109.138 184L107.138 184.5L105.638 186L104.138 186.5L101.638 187.5L99.1377 189C98.471 189.167 97.0377 189.5 96.6377 189.5C96.1377 189.5 95.1377 190.5 94.6377 190.5C94.1377 190.5 92.6377 191.5 91.6377 191.5H89.1377C88.6377 191.5 86.6377 190.5 86.1377 190.5C85.7377 190.5 83.3044 189.833 82.1377 189.5H77.6377H76.1377L73.6377 189H71.1377L68.6377 189.5L66.1377 190.5L64.6377 191.5H63.6377L62.1377 192.5H60.6377H57.6377L55.1377 191.5L52.6377 190.5L49.6377 189.5L47.6377 187.5C46.971 187.167 45.5377 186.4 45.1377 186C44.7377 185.6 44.3044 184.833 44.1377 184.5L42.1377 183L39.6377 182.5L38.1377 181L36.6377 180L35.1377 178.5L34.6377 178H33.6377L32.1377 177C31.971 176.667 31.5377 176 31.1377 176H30.1377H28.1377C27.7377 176 26.971 175.333 26.6377 175H25.6377L26.1377 173L25.6377 171.5L24.6377 170V168C24.6377 167.5 24.6377 166.5 24.1377 166C23.6377 165.5 23.1377 164 22.6377 163.5L20.6377 161.5C20.1377 160.667 19.0377 158.9 18.6377 158.5L16.1377 156L14.1377 154L12.6377 153C11.971 152.5 10.5377 151.5 10.1377 151.5C9.6377 151.5 8.63758 149 8.13758 148.5C7.73758 148.1 6.97091 147.667 6.63758 147.5L5.13758 145.5L4.13758 144.5V141.5V138.5C4.13758 138 4.13758 137 3.13758 136.5C2.33758 136.1 2.80424 135.667 3.13758 135.5L1.63758 134.5C1.63758 134 1.53758 132.8 1.13758 132C0.737578 131.2 1.30424 131.333 1.63758 131.5L4.13758 129L5.13758 127.5V125.5L5.63758 123V120L7.13758 117V116L8.13758 115L8.63758 113V112L8.13758 111L7.13758 110V108V107.5C7.13758 107.167 7.03758 106.5 6.63758 106.5C6.23758 106.5 6.47091 105.833 6.63758 105.5V104L7.13758 102L6.63758 101.5L4.13758 99C3.33758 98.6 3.13758 98.1667 3.13758 98L2.63758 97V94.5V93L3.13758 90L5.13758 87.5L5.63758 86C5.97091 85.6667 6.63758 84.9 6.63758 84.5C6.63758 84.1 7.97091 83.3333 8.63758 83V81.5L9.63758 80L10.1376 79.5C10.6376 79.1667 11.7376 78.4 12.1376 78L14.1376 76C14.5376 75.6 15.3042 74.5 15.6376 74V72V70V68.5V67L16.6376 65.5C16.8042 65.1667 17.3376 64.5 18.1376 64.5C18.6376 64.1667 19.8376 63.4 20.6376 63C21.6376 62.5 22.1376 62 22.6376 61.5C23.1376 61 24.1376 60 24.1376 59.5C24.1376 59 24.6376 58 24.6376 57.5C24.6376 57.1 25.3042 55.6667 25.6376 55H28.1376L31.1376 54.5L32.6376 54L35.1376 52.5L39.1376 49L42.6376 46.5L44.1376 45L44.6376 43.5V42C44.8042 41.3333 45.0376 40 44.6376 40C44.2376 40 44.1376 38.6667 44.1376 38V36.5L45.1376 34L46.1376 32L47.1376 30L49.1376 28L51.6376 26L54.6376 23.5L57.6376 21.5L60.1376 21L60.6376 19.5L63.6376 18V16.5L65.1376 14.5L65.6376 13L66.1376 11.5L68.1376 9.5H70.1376H71.6376L73.1376 11.5L74.1376 13L76.6376 13.5L79.6376 13L82.1376 12H84.1376L85.1376 13H89.1376H90.6376L94.6376 11.5L97.1376 10.5L100.138 9.5L102.638 8L105.138 6.5L107.138 5.5L111.638 5H115.138L118.138 3.5L121.638 3H127.638H130.638C131.038 3 131.471 3.66667 131.638 4H133.638L135.638 3L139.138 2H142.138H144.638H146.138L147.638 3.5C148.038 3.9 148.471 4 148.638 4L151.138 3.5L153.638 3L156.138 1.5H156.638L157.138 1H157.638H158.638L159.138 1.5L159.638 2L160.638 3L161.138 3.5H161.638L163.138 3L164.138 2.5H164.638H165.138L165.638 3V3.5L164.638 5.5L163.138 6.5V9L164.638 10.5L165.638 13L164.638 16L160.638 18.5L159.638 20L160.638 22Z" fill="#0A9DA7" stroke="#0A9DA7"/>
</svg>
