<svg width="381" height="320" viewBox="0 0 381 320" fill="none" xmlns="http://www.w3.org/2000/svg">
<path d="M213.955 36.3778C213.955 39.8778 224.902 60.1947 225.955 62.3778C227.008 64.5609 192.144 80.4459 168.455 82.3778C161.849 82.08 160.268 83.6169 162.455 90.3778C178.831 117.949 192.19 127.692 228.955 130.878C217.232 151.636 219.642 162.326 239.963 180.879C235.414 185.286 233.899 188.415 233.463 193.379C231.203 199.076 231.487 202.619 233.955 209.378C237.463 211.379 244.315 236.865 235.963 242.379C227.61 247.894 231.409 246.417 228.963 246.879C226.517 247.342 214.222 256.763 213.955 259.878C216.885 272.644 216.625 277.295 211.455 279.378C211.372 281.022 208.455 280.378 207.463 281.879C206.471 283.381 205.963 285.378 205.963 285.378L204.463 290.378C204.346 293.159 203.08 294.208 201.455 295.878L195.955 303.378L186.455 312.878C184.745 314.511 181.136 316.294 180.029 316.841L179.955 316.878C178.947 317.376 174.447 315.878 170.955 316.878C167.463 317.878 164.455 316.878 164.455 316.878C162.735 317.86 161.881 317.998 160.455 317.878C157.642 319.158 156.004 319.114 152.963 317.878C150.635 317.131 146.574 314.052 147.963 310.379C149.352 306.706 145.096 300.119 144.455 297.879C142.858 295.257 141.806 294.82 139.455 292.378C139.601 290.194 138.701 288.607 135.955 285.378C135.955 285.378 135.447 281.876 135.955 281.378C136.463 280.879 135.955 274.879 134.963 274.379C133.979 273.883 133.963 269.943 133.955 267.926L133.955 267.878C133.947 265.876 131.463 264.379 131.463 264.379C130.844 264.258 128.996 260.846 124.955 254.878L124.463 250.379C122.928 248.804 122.72 247.419 123.463 243.879C122.844 241.695 123.554 238.16 124.955 234.878C125.1 231.548 125.339 229.807 127.963 228.879C127.745 227.427 128.704 226.586 130.455 223.378V216.878C129.562 214.996 128.937 212.631 127.463 204.879C125.294 203.059 124.267 199.669 122.955 193.878C120.544 192.152 119.135 190.777 116.455 187.378C114.709 185.9 113.821 184.742 112.455 181.878C111.765 180.669 111.624 179.686 111.963 177.379C111.048 174.743 111.961 171.115 113.955 166.378C114.538 154.639 113.625 151.903 110.455 151.878C110.455 151.878 99.4466 154.876 98.4547 152.878C97.4629 150.879 89.5916 142.702 83.9547 143.378L75.9547 146.378L71.4629 147.879C70.0829 148.692 66.3311 150.385 63.4547 150.378C61.2779 151.001 60.0531 150.78 57.9547 149.378C55.9997 150.135 54.7663 150.024 52.4547 149.378L50.4547 149.878C47.8482 151.491 47.6416 151.681 43.9628 152.379C42.5627 153.257 40.2148 153.965 38.4547 152.878C29.9727 148.287 25.2359 145.347 16.9547 136.878C15.7854 136.034 15.5876 135.434 16.9547 133.878C15.0126 132.522 14.4983 131.784 13.4547 128.878C8.20645 125.552 9.45536 122.606 3.95468 118.878C-1.54599 115.149 1.94654 100.876 3.95468 97.3778C5.96283 93.8794 3.79654 91.647 4.46188 87.3794C6.23678 84.9482 0.456538 80.4406 3.45468 72.8794C7.00864 64.9572 10.1726 60.4635 16.4547 52.3778C20.6436 47.4215 23.5004 45.0208 29.4547 41.3778C35.1242 38.1856 36.8106 35.3883 36.9547 28.3778C36.2332 28.7344 41.7995 21.2108 42.9547 19.8778C44.1099 18.5448 46.8643 14.6385 50.4547 10.8778C53.5201 6.75408 55.3618 6.57777 58.9547 10.8778C62.6484 12.8168 64.9359 12.4566 69.4547 8.87783L84.9547 4.37783C84.9547 4.37783 88.0221 2.78644 98.4547 2.87732C104.019 2.92578 106.955 3.87939 109.455 4.29974C111.955 4.72008 112.597 4.50742 113.955 2.87783C116.865 -0.613987 121.638 0.97898 122.955 5.87783C122.972 6.76745 120.455 16.9018 120.955 17.8778C121.455 18.8538 146.04 27.9038 149.455 32.8778C152.87 37.8519 151.955 34.4952 151.955 34.4952C151.955 34.4952 152.452 31.9607 153.455 32.1278C154.955 32.3778 158.455 34.3778 157.455 31.3778C156.455 28.3778 157.455 27.8778 157.455 27.8778C157.455 27.8778 156.955 27.8778 157.455 24.8778C157.955 21.8778 162.955 21.3778 167.955 21.8778C172.955 22.3778 175.955 26.8778 184.455 27.8778C192.955 28.8778 203.455 28.3778 206.455 29.3778C209.455 30.3778 213.955 32.8778 213.955 36.3778Z" fill="#0A9DA7"/>
<path d="M151.955 34.4952C151.955 34.4952 152.452 31.9607 153.455 32.1278C154.955 32.3778 158.455 34.3778 157.455 31.3778C156.455 28.3778 157.455 27.8778 157.455 27.8778C157.455 27.8778 156.955 27.8778 157.455 24.8778C157.955 21.8778 162.955 21.3778 167.955 21.8778C172.955 22.3778 175.955 26.8778 184.455 27.8778C192.955 28.8778 203.455 28.3778 206.455 29.3778C209.455 30.3778 213.955 32.8778 213.955 36.3778C213.955 39.8778 224.902 60.1947 225.955 62.3778C227.008 64.5609 192.144 80.4459 168.455 82.3778C161.849 82.08 160.268 83.6169 162.455 90.3778C178.831 117.949 192.19 127.692 228.955 130.878C217.232 151.636 219.642 162.326 239.963 180.879C235.414 185.286 233.899 188.415 233.463 193.379C231.203 199.076 231.487 202.619 233.955 209.378C237.463 211.379 244.315 236.865 235.963 242.379C227.61 247.894 231.409 246.417 228.963 246.879C226.517 247.342 214.222 256.763 213.955 259.878C216.885 272.644 216.625 277.295 211.455 279.378C211.372 281.022 208.455 280.378 207.463 281.879C206.471 283.381 205.963 285.378 205.963 285.378L204.463 290.378C204.346 293.159 203.08 294.208 201.455 295.878L195.955 303.378L186.455 312.878C184.705 314.55 180.963 316.379 179.955 316.878C178.947 317.376 174.447 315.878 170.955 316.878C167.463 317.878 164.455 316.878 164.455 316.878C162.735 317.86 161.881 317.998 160.455 317.878C157.642 319.158 156.004 319.114 152.963 317.878C150.635 317.131 146.574 314.052 147.963 310.379C149.352 306.706 145.096 300.119 144.455 297.879C142.858 295.257 141.806 294.82 139.455 292.378C139.601 290.194 138.701 288.607 135.955 285.378C135.955 285.378 135.447 281.876 135.955 281.378C136.463 280.879 135.955 274.879 134.963 274.379C133.971 273.879 133.963 269.879 133.955 267.878C133.947 265.876 131.463 264.379 131.463 264.379C130.844 264.258 128.996 260.846 124.955 254.878L124.463 250.379C122.928 248.804 122.72 247.419 123.463 243.879C122.844 241.695 123.554 238.16 124.955 234.878C125.1 231.548 125.339 229.807 127.963 228.879C127.745 227.427 128.704 226.586 130.455 223.378V216.878C129.562 214.996 128.937 212.631 127.463 204.879C125.294 203.059 124.267 199.669 122.955 193.878C120.544 192.152 119.135 190.777 116.455 187.378C114.709 185.9 113.821 184.742 112.455 181.878C111.765 180.669 111.624 179.686 111.963 177.379C111.048 174.743 111.961 171.115 113.955 166.378C114.538 154.639 113.625 151.903 110.455 151.878C110.455 151.878 99.4466 154.876 98.4547 152.878C97.4629 150.879 89.5916 142.702 83.9547 143.378L75.9547 146.378L71.4629 147.879C70.0829 148.692 66.3311 150.385 63.4547 150.378C61.2779 151.001 60.0531 150.78 57.9547 149.378C55.9997 150.135 54.7663 150.024 52.4547 149.378L50.4547 149.878C47.8482 151.491 47.6416 151.681 43.9628 152.379C42.5627 153.257 40.2148 153.965 38.4547 152.878C29.9727 148.287 25.2359 145.347 16.9547 136.878C15.7854 136.034 15.5876 135.434 16.9547 133.878C15.0126 132.522 14.4983 131.784 13.4547 128.878C8.20645 125.552 9.45536 122.606 3.95468 118.878C-1.54599 115.149 1.94654 100.876 3.95468 97.3778C5.96283 93.8794 3.79654 91.647 4.46188 87.3794C6.23678 84.9482 0.456538 80.4406 3.45468 72.8794C7.00864 64.9572 10.1726 60.4635 16.4547 52.3778C20.6436 47.4215 23.5004 45.0208 29.4547 41.3778C35.1242 38.1856 36.8106 35.3883 36.9547 28.3778C36.2332 28.7344 41.7995 21.2108 42.9547 19.8778C44.1099 18.5448 46.8643 14.6385 50.4547 10.8778C53.5201 6.75408 55.3618 6.57777 58.9547 10.8778C62.6484 12.8168 64.9359 12.4566 69.4547 8.87783L84.9547 4.37783C84.9547 4.37783 88.0221 2.78644 98.4547 2.87732C104.019 2.92578 106.955 3.87939 109.455 4.29974C111.955 4.72008 112.597 4.50742 113.955 2.87783C116.865 -0.613987 121.638 0.97898 122.955 5.87783C122.972 6.76745 120.455 16.9018 120.955 17.8778C121.455 18.8538 146.04 27.9038 149.455 32.8778C152.87 37.8519 151.955 34.4952 151.955 34.4952ZM151.955 34.4952C151.955 34.9561 151.955 35.6778 151.955 34.8778" stroke="#0A9DA7"/>
<path d="M259.5 170L252 175L251.5 175.5H250L248.5 174.5L247 173.5L245 172L242 169.5L239.5 167C237.543 165.155 236.809 164.5 235.5 162.5C234.191 160.5 234.057 160.837 233.5 159C232.765 157.425 232.324 156.29 231.5 154C231.118 151.133 231.074 149.59 231.5 147L232.5 144.5L233 143L234 141L235.5 139L237 137.5L238.5 136L240.5 134.5L242.5 133L244 132L247 130.5L249 130L251 129.5H253H254.5H256L257.5 130L259 131L260 132L261 133.5L261.5 135V137V139L261 140.5L260 142L259 143L257.5 144L256 144.5H254H252L251 144H248.5C243.011 145.568 242.511 148.195 244 154.5L248 159L251 161L253 162.5L256 164L259.5 165L262 166C264.082 166.221 264.515 166.453 264.5 167C264.485 167.547 263 168.5 263 168.5L259.5 170Z" fill="#0A9DA7" stroke="#0A9DA7"/>
<path d="M257 215.5L255 214L252 211L249 207.5L247.5 205.5L246.5 203L245.5 199.5L245 197V194L245.5 191L246.5 188L247.5 186L249 184L251 181.5L253.5 179L255.5 177.5L261 174L266 171.5L269 170.5L275 168.5L281 167L287 164.5L291 163.5L294.5 161.5L296 160L298 158.5L300.5 156L302 153.5C303.087 148.773 302.748 146.754 300.5 146L299.5 145L299 144.5L298 144L297 143.5H295.5L294.5 144L293 144.5H292H290L288.5 144L287 143.5L286 142.5L285 141.5L284 140.5L283 139V137.5V136V135L283.5 133.5L284 132.5L285 131.5L286.5 130.5L287.5 130L289 129.5L291 129H292.5H294L296 129.5L298.5 130.5L301 132L303.5 133.5L306 135L307.5 136.5L310 139L312 141.5L313 144.5L314 148.5V152L313 156L311.5 160L309 163.5L306 166.5L302 170.5L297 173.5L291.5 175.5L285 178L278.5 180.5L274.5 181.5L270.5 183L267 184L264.5 185C257.024 189.051 255.269 191.532 257 198.5L258 201L260.5 203.5L262.5 205L264.5 207L267.5 209.5L261 215L259 216.5H258L257 215.5Z" fill="#0A9DA7" stroke="#0A9DA7"/>
<path d="M256.5 243.5C258.502 247.28 260.969 249.89 266 252.002C267.027 249.863 266.527 247.106 265 243C264.221 242.249 264.692 242.916 263.5 240.502C262.861 240.812 263.5 226.504 269 224.502C274.5 222.5 276.5 221.502 276.5 221.502L287.5 216.002C291.105 213.569 293.096 212.172 296 208.002C298.223 205.804 299.07 204.326 299.5 201.002V194C299.736 185.489 294.63 179.661 292.5 180.002C290.37 180.343 284.5 182.5 283 183.5C281.5 184.5 286 188.002 286 188.002C291.413 193.923 289.887 197.303 285 204.5L277 209.5L269 213.5C262.742 216.423 259.545 218.54 256.5 224.502C252.599 231.841 253.282 236.016 256.5 243.5Z" fill="#0A9DA7" stroke="#0A9DA7"/>
<path d="M274.499 262C273.699 262 271.166 265.667 269.999 267.5C269.636 270.233 269.65 278.441 269.999 293.5C272.218 295.567 273.421 295.206 275.499 292V279.5L275.999 264C275.832 263.333 275.299 262 274.499 262Z" fill="#0A9DA7" stroke="#0A9DA7"/>
<path d="M280.501 257.5C277.313 259.931 276.299 260.719 276.001 261C275.704 261.281 277.501 262.5 277.501 263V279C277.625 279.599 277.865 279.572 278.501 279C280.591 277.54 281.722 275.968 283.501 271.5C284.204 262.133 283.816 258.509 280.501 257.5Z" fill="#0A9DA7" stroke="#0A9DA7"/>
<path d="M188.196 88.0704C187.083 89.1785 169.978 88.0576 168.189 89.0704C166.4 90.0833 177.86 99.3997 179.195 99.0716C182.596 99.9489 184.344 100.049 187.195 99.5716C193.722 99.7269 197.015 99.9178 201.695 100.572C208.104 99.0183 207.007 99.8702 203.189 102.07C196.189 103.57 198.689 104.07 193.189 104.07C178.947 102.659 189.189 106.57 193.189 110.57L196.689 112.57L202.689 113.07H208.189H212.689L216.689 112.57C222.686 111.073 223.105 111.513 217.689 115.07L214.689 116.07C207.707 116.055 207.785 116.566 213.689 120.572C221.941 123.323 228.567 122.02 231.195 120.07C238.127 114.52 238.908 114.9 235.3 121.382C234.971 122.546 236.416 122.441 240.189 122.57C246.461 122.628 249.538 122.512 254.195 122.072L263.695 120.572C267.975 118.536 269.138 118.863 268.189 123.07L268.189 166.07L277.195 163.572V123.072C275.748 117.947 277.978 118.339 281.189 120.072C290.806 122.246 310.189 122.07 310.189 120.57C310.189 119.07 305.146 113.28 312.695 118.072C316.271 121.576 319.788 122.342 328.195 122.072C340.362 118.07 339.189 117.57 327.695 115.572C321.623 111.682 322.03 110.99 331.195 113.072C334.832 113.727 336.87 114.054 340.689 113.072C343.556 113.788 345.082 113.714 347.695 113.072L353.195 111.072L357.695 107.572C360.357 105.375 361.08 104.145 357.189 104.57L354.695 104.572C351.113 104.487 349.384 104.246 346.689 103.57C344.144 102.012 342.659 101.282 339.695 100.572C338.075 99.7051 338.091 99.366 339.695 99.0716H343.195C350.615 100.234 355.269 100.238 362.689 99.6783C379.063 95.3573 383.189 80.0724 376.689 84.1776L369.189 85.0724C359.637 85.9968 354.756 85.489 346.689 83.0724C337.232 81.7282 333.349 80.1919 327.689 78.0727C312.661 71.0017 304.925 73.9832 299.689 80.5724L296.689 83.5724L295.689 86.5724C295.117 90.0588 294.521 91.6341 293.189 94.0724L289.189 100.572L285.689 103.57L283.189 105.072C281.002 106.501 278.937 106.729 277.189 106.072V101.572H276.727C283.244 97.742 284.189 88.5723 278.195 84.5716C274.262 82.2724 270.689 82.4782 267.695 84.5716C262.075 88.5013 260.689 94.0723 267.695 102.072V106.072C264.835 106.885 262.256 105.896 260.689 104.07C256.641 102.267 254.91 99.0446 250.689 91.0723C249.895 85.1893 247.858 82.3728 243.195 78.0716C235.671 73.9748 231.1 73.4971 222.695 76.5716L215.195 79.5716L197.195 86.0716L188.196 88.0704Z" fill="#0A9DA7" stroke="#0A9DA7"/>
<path d="M277 184L269 187V209L277 205.5V184Z" fill="#0A9DA7" stroke="#0A9DA7"/>
<path d="M275.499 226L268.999 231V251.5C264.687 254.725 263.5 257.5 261.5 263C259.5 268.5 260.727 272.534 263.999 277.5C266.551 281.341 267.836 281.501 267.5 276.5C267.5 276.5 267.499 271 266.999 268.5C266.499 266 271.488 259.891 281.999 253.5C287.221 249.389 289.814 246.542 291.999 237.5C291.699 228.245 290.987 223.856 285.999 221.5L276.999 226.5C276.999 226.5 279.999 225.5 281.999 231C283.999 236.5 281.266 242.593 275.499 246V226Z" fill="#0A9DA7" stroke="#0A9DA7"/>
</svg>
